<svg xmlns="http://www.w3.org/2000/svg" width="213.995" height="70" viewBox="0 0 213.995 70">
  <g id="Group_558" data-name="Group 558" transform="translate(-210.01 -688.822)">
    <path id="Path_62" data-name="Path 62" d="M424.005,749.361a9.46,9.46,0,0,1-9.457,9.461H219.47a9.462,9.462,0,0,1-9.46-9.461v-51.08a9.461,9.461,0,0,1,9.46-9.459H414.548a9.459,9.459,0,0,1,9.457,9.459v51.08Z" fill="#231f20"/>
    <g id="Group_557" data-name="Group 557">
      <path id="Path_63" data-name="Path 63" d="M274.559,733.154a28.635,28.635,0,0,1-2.6,4.844c-1.685,2.566-4.06,5.761-7,5.788-2.615.024-3.287-1.7-6.836-1.683s-4.29,1.713-6.906,1.689c-2.943-.027-5.193-2.912-6.879-5.477-4.712-7.174-5.205-15.593-2.3-20.068a10.43,10.43,0,0,1,8.388-5.043c3.119,0,5.08,1.711,7.659,1.711,2.5,0,4.027-1.714,7.633-1.714a10.176,10.176,0,0,1,7.672,4.052,8.78,8.78,0,0,0,1.166,15.9Z" fill="#fff"/>
      <path id="Path_64" data-name="Path 64" d="M262.985,710.336a8.755,8.755,0,0,0,1.944-6.485,9.46,9.46,0,0,0-6.106,3.285,8.123,8.123,0,0,0-1.995,6.325,7.985,7.985,0,0,0,6.157-3.125Z" fill="#fff"/>
      <path id="Path_65" data-name="Path 65" d="M290.517,721.406c.228.886.474,1.807.79,2.8l1.819,5.268h-5.177l1.794-5.3c.273-.859.532-1.788.774-2.768Zm-1.6-3.268-6.751,19.871h3.091l2.016-6.1h6.536l2.072,6.1h3.177l-6.78-19.871Z" fill="#fff"/>
      <path id="Path_66" data-name="Path 66" d="M307.043,725.778c2.681,0,3.88,2.483,3.88,4.943,0,3.173-1.531,5.144-3.994,5.144a3.643,3.643,0,0,1-3.541-2.79,3.811,3.811,0,0,1-.107-.973v-2.417a4.569,4.569,0,0,1,.1-.742c.015-.083.032-.165.043-.245a3.808,3.808,0,0,1,3.624-2.92Zm.749-2.489a5.627,5.627,0,0,0-4.779,2.293l-.12-1.976h-2.75l.017.252c.081,1.232.114,2.587.114,4.533v15.316h3.007v-7.148a5.28,5.28,0,0,0,4.109,1.766,6.2,6.2,0,0,0,4.556-1.937,8.212,8.212,0,0,0,2.011-5.782,8,8,0,0,0-1.746-5.28,5.718,5.718,0,0,0-4.419-2.037Z" fill="#fff"/>
      <path id="Path_67" data-name="Path 67" d="M322.525,725.778c2.679,0,3.879,2.483,3.879,4.943,0,3.173-1.532,5.144-3.994,5.144a3.643,3.643,0,0,1-3.541-2.79,3.817,3.817,0,0,1-.106-.973v-2.417a4.483,4.483,0,0,1,.1-.745c.015-.081.03-.162.044-.242a3.8,3.8,0,0,1,3.623-2.92Zm.749-2.489a5.629,5.629,0,0,0-4.78,2.293l-.12-1.976h-2.749l.015.252c.082,1.233.116,2.587.116,4.533v15.316h3.007v-7.148a5.276,5.276,0,0,0,4.108,1.766,6.206,6.206,0,0,0,4.558-1.937,8.221,8.221,0,0,0,2.01-5.782,7.993,7.993,0,0,0-1.748-5.28,5.714,5.714,0,0,0-4.417-2.037Z" fill="#fff"/>
      <path id="Path_68" data-name="Path 68" d="M342.668,726.558c-2.8-1.087-3.7-1.941-3.7-3.52,0-1.33,1.057-2.67,3.418-2.67a6.831,6.831,0,0,1,3.529.886l.255.157.848-2.509-.168-.1a8.713,8.713,0,0,0-4.378-.982c-3.834,0-6.511,2.263-6.511,5.5,0,2.612,1.676,4.439,5.276,5.748,2.552.953,3.5,1.93,3.5,3.6,0,1.9-1.465,3.071-3.821,3.071a8.227,8.227,0,0,1-4.333-1.228l-.261-.167-.807,2.567.148.1a10.3,10.3,0,0,0,5.081,1.306c5.167,0,7-3.151,7-5.849,0-2.781-1.468-4.5-5.071-5.918Z" fill="#fff"/>
      <path id="Path_69" data-name="Path 69" d="M353.151,720.182l-2.949.926v2.5h-2.158v2.4H350.2v7.361a5.628,5.628,0,0,0,1.041,3.814,3.856,3.856,0,0,0,2.909,1.142,7.056,7.056,0,0,0,2.324-.359l.168-.059L356.5,735.5l-.288.088a4.525,4.525,0,0,1-1.4.161c-1.164,0-1.662-.737-1.662-2.467v-7.274h3.627v-2.4h-3.627v-3.424Z" fill="#fff"/>
      <path id="Path_70" data-name="Path 70" d="M364.141,725.663c2.705,0,3.936,2.636,3.936,5.087,0,3.014-1.68,5.2-3.993,5.2h-.029c-2.28,0-3.935-2.151-3.935-5.115,0-2.575,1.244-5.174,4.021-5.174Zm.087-2.374c-4.206,0-7.144,3.14-7.144,7.633,0,4.359,2.843,7.4,6.914,7.4h.028c3.441,0,7.144-2.4,7.144-7.662a7.6,7.6,0,0,0-1.916-5.317,6.689,6.689,0,0,0-5.026-2.057Z" fill="#fff"/>
      <path id="Path_71" data-name="Path 71" d="M380.378,723.429l-.18-.046a2.9,2.9,0,0,0-.748-.094,4.286,4.286,0,0,0-3.769,2.421l-.089-2.1h-2.7l.017.252c.08,1.191.113,2.527.113,4.33L373,738.009H376v-7.662a7.677,7.677,0,0,1,.083-1.166,3.322,3.322,0,0,1,3.163-3.029,7.715,7.715,0,0,1,.806.05l.322.033v-2.806Z" fill="#fff"/>
      <path id="Path_72" data-name="Path 72" d="M386.937,725.548a2.966,2.966,0,0,1,2.207.842,4.277,4.277,0,0,1,1.035,2.8h-6.856c.279-1.736,1.365-3.641,3.614-3.641Zm.2-2.287c-4,0-6.8,3.2-6.8,7.777,0,4.409,2.78,7.258,7.085,7.258a11.545,11.545,0,0,0,4.76-.912l.181-.082-.578-2.24-.251.1a9.317,9.317,0,0,1-3.766.673,4.179,4.179,0,0,1-4.5-4.359l9.7.03.039-.193a6.6,6.6,0,0,0,.091-1.254c0-3.137-1.562-6.8-5.964-6.8Z" fill="#fff"/>
      <path id="Path_73" data-name="Path 73" d="M283.529,712.9a9.875,9.875,0,0,0,1.365.055c2.884.014,4.449-1.451,4.449-3.99.016-2.247-1.38-3.628-4.232-3.628a8.587,8.587,0,0,0-1.582.125V712.9Zm-1.364-8.331a21.98,21.98,0,0,1,2.884-.2,6.434,6.434,0,0,1,4.233,1.159,4.116,4.116,0,0,1,1.488,3.39,4.761,4.761,0,0,1-1.5,3.656,6.974,6.974,0,0,1-4.635,1.353,20.908,20.908,0,0,1-2.466-.112v-9.251Z" fill="#fff"/>
      <path id="Path_74" data-name="Path 74" d="M295.652,713.076a2.4,2.4,0,0,0,2.279-2.637,2.294,2.294,0,1,0-2.3,2.637Zm-.046.921a3.389,3.389,0,0,1-3.6-3.474,3.483,3.483,0,0,1,3.72-3.586,3.362,3.362,0,0,1,3.613,3.46,3.5,3.5,0,0,1-3.72,3.6Z" fill="#fff"/>
      <path id="Path_75" data-name="Path 75" d="M301.5,707.09l1.008,3.419c.2.753.4,1.465.543,2.162h.046c.171-.684.419-1.409.667-2.148l1.225-3.433h1.147l1.163,3.377c.279.8.5,1.52.667,2.2h.046a18.588,18.588,0,0,1,.574-2.19l1.069-3.391H311l-2.418,6.753h-1.241L306.2,710.62a22.386,22.386,0,0,1-.667-2.232H305.5a18.605,18.605,0,0,1-.682,2.246l-1.209,3.209h-1.24l-2.264-6.753Z" fill="#fff"/>
      <path id="Path_76" data-name="Path 76" d="M312.37,708.918c0-.712-.016-1.27-.063-1.828h1.21l.077,1.1h.031a2.845,2.845,0,0,1,2.481-1.256,2.568,2.568,0,0,1,2.651,2.874v4.032h-1.363V709.95c0-1.088-.451-2.008-1.738-2.008a1.948,1.948,0,0,0-1.829,1.255,1.658,1.658,0,0,0-.093.572v4.074H312.37v-4.925Z" fill="#fff"/>
      <path id="Path_77" data-name="Path 77" d="M320.974,703.937h1.364v9.906h-1.364v-9.906Z" fill="#fff"/>
      <path id="Path_78" data-name="Path 78" d="M327.7,713.076a2.4,2.4,0,0,0,2.28-2.637,2.295,2.295,0,1,0-2.3,2.637Zm-.046.921a3.39,3.39,0,0,1-3.6-3.474,3.483,3.483,0,0,1,3.721-3.586,3.362,3.362,0,0,1,3.612,3.46,3.5,3.5,0,0,1-3.721,3.6Z" fill="#fff"/>
      <path id="Path_79" data-name="Path 79" d="M337.069,710.4c-1.489-.028-3.178.209-3.178,1.521a1.14,1.14,0,0,0,1.271,1.172,1.89,1.89,0,0,0,1.844-1.13,1.117,1.117,0,0,0,.063-.391V710.4Zm1.333,1.828a10.279,10.279,0,0,0,.108,1.618h-1.225l-.124-.851h-.046A2.88,2.88,0,0,1,334.821,714a2.046,2.046,0,0,1-2.3-1.94c0-1.632,1.612-2.525,4.511-2.511v-.14c0-.558-.169-1.576-1.7-1.562a3.917,3.917,0,0,0-1.969.5l-.31-.822a5.278,5.278,0,0,1,2.481-.586c2.31,0,2.868,1.408,2.868,2.763v2.525Z" fill="#fff"/>
      <path id="Path_80" data-name="Path 80" d="M345.7,709.839a2,2,0,0,0-.063-.53,1.971,1.971,0,0,0-1.968-1.41,2.312,2.312,0,0,0-2.249,2.6,2.241,2.241,0,0,0,2.218,2.511,2.029,2.029,0,0,0,2-1.465,1.871,1.871,0,0,0,.063-.53v-1.172Zm1.364-5.9V712.1c0,.6.016,1.283.062,1.744h-1.224l-.062-1.172h-.032A2.8,2.8,0,0,1,343.271,714a3.22,3.22,0,0,1-3.225-3.433,3.366,3.366,0,0,1,3.364-3.627,2.58,2.58,0,0,1,2.264,1.018h.031v-4.018Z" fill="#fff"/>
      <path id="Path_81" data-name="Path 81" d="M355.721,713.076A2.4,2.4,0,0,0,358,710.439a2.294,2.294,0,1,0-2.3,2.637Zm-.047.921a3.39,3.39,0,0,1-3.6-3.474,3.484,3.484,0,0,1,3.721-3.586,3.362,3.362,0,0,1,3.613,3.46,3.5,3.5,0,0,1-3.721,3.6Z" fill="#fff"/>
      <path id="Path_82" data-name="Path 82" d="M361.133,708.918c0-.712-.016-1.27-.063-1.828h1.21l.078,1.1h.031a2.842,2.842,0,0,1,2.48-1.256,2.569,2.569,0,0,1,2.652,2.874v4.032h-1.365V709.95c0-1.088-.449-2.008-1.737-2.008a1.948,1.948,0,0,0-1.829,1.255,1.658,1.658,0,0,0-.093.572v4.074h-1.364v-4.925Z" fill="#fff"/>
      <path id="Path_83" data-name="Path 83" d="M374.668,705.472v1.618h1.953v.934h-1.953v3.643c0,.837.264,1.311,1.024,1.311a2.861,2.861,0,0,0,.791-.083l.061.934a4.079,4.079,0,0,1-1.209.168,2.067,2.067,0,0,1-1.474-.516,2.458,2.458,0,0,1-.526-1.773v-3.684h-1.163v-.934h1.163v-1.242l1.333-.376Z" fill="#fff"/>
      <path id="Path_84" data-name="Path 84" d="M378.157,703.937h1.364v4.213h.032a2.324,2.324,0,0,1,.977-.865,2.89,2.89,0,0,1,1.395-.348,2.567,2.567,0,0,1,2.62,2.888v4.018h-1.364v-3.878c0-1.1-.45-2.01-1.737-2.01a1.962,1.962,0,0,0-1.83,1.228,1.358,1.358,0,0,0-.093.586v4.074h-1.364v-9.906Z" fill="#fff"/>
      <path id="Path_85" data-name="Path 85" d="M391.523,709.8a1.812,1.812,0,0,0-1.877-1.995,2.123,2.123,0,0,0-2.093,1.995Zm-3.986.879a2.287,2.287,0,0,0,2.559,2.344,5.7,5.7,0,0,0,2.078-.335l.248.865a6.713,6.713,0,0,1-2.512.433c-2.3,0-3.69-1.382-3.69-3.4a3.437,3.437,0,0,1,3.534-3.656,2.955,2.955,0,0,1,3.085,3.181,2.867,2.867,0,0,1-.045.586l-5.257-.014Z" fill="#fff"/>
    </g>
  </g>
</svg>
