<svg xmlns="http://www.w3.org/2000/svg" width="70.18" height="70.18" viewBox="0 0 70.18 70.18">
  <g id="Group_768" data-name="Group 768" transform="translate(-1530.752 -4511.464)">
    <circle id="Ellipse_144" data-name="Ellipse 144" cx="35.09" cy="35.09" r="35.09" transform="translate(1530.752 4511.464)" fill="#3a018a"/>
    <g id="Group_767" data-name="Group 767">
      <path id="Path_202" data-name="Path 202" d="M1565.842,4531.369c-4.055,0-4.563.017-6.156.09a10.959,10.959,0,0,0-3.625.694,7.64,7.64,0,0,0-4.367,4.367,10.977,10.977,0,0,0-.694,3.625c-.072,1.592-.089,2.1-.089,6.156s.017,4.564.089,6.156a10.977,10.977,0,0,0,.694,3.625,7.64,7.64,0,0,0,4.367,4.367,11,11,0,0,0,3.625.694c1.593.073,2.1.09,6.156.09s4.564-.017,6.157-.09a10.986,10.986,0,0,0,3.624-.694,7.633,7.633,0,0,0,4.367-4.367,10.924,10.924,0,0,0,.694-3.625c.073-1.592.09-2.1.09-6.156s-.017-4.564-.09-6.156a10.924,10.924,0,0,0-.694-3.625,7.633,7.633,0,0,0-4.367-4.367,10.948,10.948,0,0,0-3.624-.694c-1.593-.073-2.1-.09-6.157-.09Zm0,2.69c3.987,0,4.46.016,6.034.088a8.234,8.234,0,0,1,2.773.514,4.943,4.943,0,0,1,2.834,2.834,8.281,8.281,0,0,1,.514,2.772c.072,1.575.087,2.047.087,6.034s-.015,4.459-.087,6.034a8.281,8.281,0,0,1-.514,2.772,4.943,4.943,0,0,1-2.834,2.834,8.234,8.234,0,0,1-2.773.514c-1.574.072-2.046.087-6.034.087s-4.459-.015-6.033-.087a8.234,8.234,0,0,1-2.773-.514,4.942,4.942,0,0,1-2.834-2.834,8.258,8.258,0,0,1-.514-2.772c-.072-1.575-.087-2.047-.087-6.034s.015-4.459.087-6.034a8.258,8.258,0,0,1,.514-2.772,4.942,4.942,0,0,1,2.834-2.834,8.234,8.234,0,0,1,2.773-.514c1.574-.072,2.046-.088,6.033-.088" fill="#fff"/>
      <path id="Path_203" data-name="Path 203" d="M1565.842,4551.278a4.977,4.977,0,1,1,4.978-4.977,4.977,4.977,0,0,1-4.978,4.977Zm0-12.645a7.668,7.668,0,1,0,7.668,7.668,7.668,7.668,0,0,0-7.668-7.668Z" fill="#fff"/>
      <path id="Path_204" data-name="Path 204" d="M1575.6,4538.33a1.792,1.792,0,1,1-1.792-1.792,1.792,1.792,0,0,1,1.792,1.792Z" fill="#fff"/>
    </g>
  </g>
</svg>
