<svg xmlns="http://www.w3.org/2000/svg" width="70.18" height="70.18" viewBox="0 0 70.18 70.18">
  <g id="Group_764" data-name="Group 764" transform="translate(-1312.597 -4511.464)">
    <circle id="Ellipse_142" data-name="Ellipse 142" cx="35.09" cy="35.09" r="35.09" transform="translate(1312.597 4511.464)" fill="#3a018a"/>
    <path id="Path_200" data-name="Path 200" d="M1359.562,4540.463c.012.263.017.528.017.793,0,8.1-6.162,17.432-17.431,17.432a17.351,17.351,0,0,1-9.393-2.752,12.568,12.568,0,0,0,1.462.085,12.293,12.293,0,0,0,7.609-2.623,6.133,6.133,0,0,1-5.723-4.255,6.014,6.014,0,0,0,1.153.11,6.087,6.087,0,0,0,1.614-.215,6.131,6.131,0,0,1-4.915-6.006c0-.027,0-.053,0-.078a6.128,6.128,0,0,0,2.775.767,6.134,6.134,0,0,1-1.9-8.181,17.388,17.388,0,0,0,12.628,6.4,6.131,6.131,0,0,1,10.44-5.588,12.248,12.248,0,0,0,3.891-1.487,6.142,6.142,0,0,1-2.694,3.39,12.248,12.248,0,0,0,3.519-.965A12.439,12.439,0,0,1,1359.562,4540.463Z" fill="#fff"/>
  </g>
</svg>
