<svg width="40" height="40" viewBox="0 0 40 40" fill="none" xmlns="http://www.w3.org/2000/svg">
    <circle cx="20" cy="20" r="20" fill="#3A018A"/>
    <path d="M24.2363 25.9999C23.7101 26.002 23.1983 25.8287 22.7817 25.5073C22.3651 25.1859 22.0675 24.7349 21.936 24.2254L20.1089 17.1307C20.1017 17.1028 20.0856 17.0781 20.0631 17.0603C20.0405 17.0425 20.0128 17.0326 19.984 17.0321C19.955 17.0329 19.927 17.0429 19.904 17.0606C19.881 17.0783 19.8642 17.1028 19.8559 17.1307L18.0255 24.2451C17.8965 24.7469 17.6045 25.1915 17.1952 25.5092C16.7859 25.8268 16.2827 25.9995 15.7646 25.9999C15.2502 26.0001 14.75 25.8304 14.3418 25.5173C13.9337 25.2042 13.6402 24.7651 13.5071 24.2681L11.0556 15.067C10.9906 14.8233 10.9825 14.568 11.0319 14.3207C11.0814 14.0735 11.1871 13.8409 11.3409 13.6411C11.4947 13.4412 11.6924 13.2794 11.9187 13.1683C12.1451 13.0571 12.3939 12.9995 12.6461 13C13.0243 13.0007 13.3907 13.1318 13.6835 13.3713C13.9762 13.6108 14.1774 13.9439 14.253 14.3145L15.8961 22.2209C15.9028 22.2498 15.9191 22.2757 15.9424 22.2942C15.9657 22.3127 15.9945 22.3228 16.0243 22.3227C16.0531 22.3228 16.0812 22.3131 16.1038 22.2952C16.1265 22.2773 16.1425 22.2523 16.1491 22.2242L18.1011 14.2323C18.1859 13.8816 18.3864 13.5696 18.6701 13.3467C18.9539 13.1237 19.3044 13.0028 19.6653 13.0033H20.4112C20.7743 12.9995 21.128 13.1185 21.4149 13.341C21.7019 13.5635 21.9052 13.8764 21.9919 14.229L23.9635 22.2242C23.9702 22.2523 23.9862 22.2773 24.0088 22.2952C24.0315 22.3131 24.0595 22.3228 24.0884 22.3227C24.1181 22.3228 24.147 22.3127 24.1703 22.2942C24.1936 22.2757 24.2099 22.2498 24.2166 22.2209L25.8596 14.2882C25.9338 13.9254 26.131 13.5995 26.4178 13.3654C26.7046 13.1312 27.0635 13.0033 27.4337 13.0033C27.6806 13.003 27.9242 13.0596 28.1457 13.1685C28.3673 13.2775 28.5608 13.4359 28.7114 13.6315C28.8619 13.8272 28.9655 14.0549 29.014 14.2969C29.0626 14.539 29.0548 14.789 28.9913 15.0275L26.5431 24.2287C26.4112 24.7389 26.1125 25.1904 25.6945 25.5113C25.2765 25.8323 24.7633 26.0042 24.2363 25.9999Z" fill="white"/>
</svg>
