<svg xmlns="http://www.w3.org/2000/svg" width="58.982" height="42.527" viewBox="0 0 58.982 42.527">
  <path id="Path_63" data-name="Path 63" d="M273.809,128.155h0a7.742,7.742,0,0,1-7.5-5.8L260.3,99.134a.428.428,0,0,0-.414-.32h-.031a.427.427,0,0,0-.414.321l-5.964,23.278a7.636,7.636,0,0,1-7.4,5.742h0a7.637,7.637,0,0,1-7.38-5.671l-8.02-30.1a5.376,5.376,0,0,1,5.194-6.761h0a5.375,5.375,0,0,1,5.264,4.285l5.363,25.872a.427.427,0,0,0,.418.341h.011a.427.427,0,0,0,.415-.326l6.38-26.151a5.27,5.27,0,0,1,5.119-4.021h2.445a5.269,5.269,0,0,1,5.118,4.015l6.414,26.157a.428.428,0,0,0,.415.326h.011a.427.427,0,0,0,.418-.341l5.381-25.957a5.269,5.269,0,0,1,5.159-4.2h0a5.27,5.27,0,0,1,5.093,6.623L281.293,122.4A7.743,7.743,0,0,1,273.809,128.155Z" transform="translate(-230.498 -85.628)" fill="#fff"/>
</svg>
