<svg xmlns="http://www.w3.org/2000/svg" width="70.18" height="70.18" viewBox="0 0 70.18 70.18">
  <g id="Group_763" data-name="Group 763" transform="translate(-1639.83 -4511.464)">
    <circle id="Ellipse_141" data-name="Ellipse 141" cx="35.09" cy="35.09" r="35.09" transform="translate(1639.83 4511.464)" fill="#3a018a"/>
    <g id="Group_762" data-name="Group 762">
      <path id="Path_198" data-name="Path 198" d="M1682.813,4538.96a6.651,6.651,0,0,0-6.038,3.325v.066h-.044a.431.431,0,0,0,.044-.066v-2.853h-6.7c.087,1.888,0,20.147,0,20.147h6.7v-11.252a4.577,4.577,0,0,1,.221-1.633,3.674,3.674,0,0,1,3.437-2.452c2.425,0,3.393,1.85,3.393,4.558v10.779h6.7v-11.552C1690.524,4541.837,1687.219,4538.96,1682.813,4538.96Z" fill="#fff"/>
      <path id="Path_199" data-name="Path 199" d="M1663.068,4529.715a3.493,3.493,0,1,0-.088,6.966h.044a3.494,3.494,0,1,0,.044-6.966Z" fill="#fff"/>
      <rect id="Rectangle_159" data-name="Rectangle 159" width="6.699" height="20.147" transform="translate(1659.675 4539.432)" fill="#fff"/>
    </g>
  </g>
</svg>
