<svg xmlns="http://www.w3.org/2000/svg" width="56.597" height="56.615" viewBox="0 0 56.597 56.615">
  <g id="Group_735" data-name="Group 735" transform="translate(-432.843 -2547.199)">
    <path id="Path_105" data-name="Path 105" d="M487.967,2575.51h0a5.552,5.552,0,0,0-5.548-5.554H480.49a2.44,2.44,0,0,1-2.256-1.519v-.032a2.44,2.44,0,0,1,.524-2.66l1.361-1.361a5.549,5.549,0,0,0,0-7.85h0a5.554,5.554,0,0,0-7.853,0h0l-1.359,1.361a2.438,2.438,0,0,1-2.66.524l-.032-.012a2.439,2.439,0,0,1-1.52-2.258v-1.922a5.553,5.553,0,0,0-5.553-5.553h0a5.553,5.553,0,0,0-5.553,5.553v1.922a2.439,2.439,0,0,1-1.519,2.258l-.03.012a2.438,2.438,0,0,1-2.66-.524l-1.361-1.361a5.555,5.555,0,0,0-7.854,0h0a5.553,5.553,0,0,0,0,7.851l1.361,1.361a2.438,2.438,0,0,1,.527,2.66v.032a2.438,2.438,0,0,1-2.258,1.519H439.87a5.555,5.555,0,0,0-5.553,5.554h0a5.554,5.554,0,0,0,5.553,5.55H441.8a2.441,2.441,0,0,1,2.255,1.522l.014.029a2.437,2.437,0,0,1-.526,2.661l-1.361,1.361a5.552,5.552,0,0,0,0,7.85h0a5.555,5.555,0,0,0,7.854,0l1.361-1.36a2.438,2.438,0,0,1,2.66-.527l.03.012a2.44,2.44,0,0,1,1.519,2.259v1.924a5.553,5.553,0,0,0,5.553,5.55h0a5.552,5.552,0,0,0,5.553-5.55v-1.924a2.44,2.44,0,0,1,1.519-2.259l.033-.012a2.438,2.438,0,0,1,2.66.527l1.359,1.36a5.552,5.552,0,0,0,7.853,0h0a5.549,5.549,0,0,0,0-7.85h0l-1.361-1.361a2.439,2.439,0,0,1-.524-2.661v-.029a2.44,2.44,0,0,1,2.258-1.522h1.922A5.55,5.55,0,0,0,487.967,2575.51Z" fill="none" stroke="#f00" stroke-linecap="round" stroke-miterlimit="10" stroke-width="2.947"/>
    <g id="Ellipse_210" data-name="Ellipse 210">
      <circle id="Ellipse_137" data-name="Ellipse 137" cx="12.194" cy="12.194" r="12.194" transform="translate(449.304 2563.659)" fill="none"/>
      <circle id="Ellipse_138" data-name="Ellipse 138" cx="10.694" cy="10.694" r="10.694" transform="translate(450.804 2565.159)" fill="none" stroke="#f00" stroke-width="2.947"/>
    </g>
  </g>
</svg>
