<svg xmlns="http://www.w3.org/2000/svg" width="46.846" height="46.846" viewBox="0 0 46.846 46.846">
  <g id="Icon-2" transform="translate(-636.679 -2551.269)">
    <path id="Path" d="M682.052,2573.473a20.451,20.451,0,0,1-2.2,9.268,20.729,20.729,0,0,1-18.535,11.462,20.45,20.45,0,0,1-9.268-2.195l-13.9,4.634,4.634-13.9a20.451,20.451,0,0,1-2.2-9.268,20.731,20.731,0,0,1,11.462-18.535,20.453,20.453,0,0,1,9.268-2.2h1.219a20.682,20.682,0,0,1,19.511,19.511Z" fill="none" stroke="#f00" stroke-linecap="round" stroke-linejoin="round" stroke-width="2.947"/>
  </g>
</svg>
